# xmcd
#
# Track frame offsets:
#	150
#	1046
#	26818
#	41878
#	64018
#	88582
#	103676
#	121251
#	142986
#	167022
#	187466
#	210522
#	221081
#	243150
#
# Disc length: 3687 seconds
#
# Revision: 1
# Processed by: cddbd v1.5.2PL0 Copyright (c) Steve Scherf et al.
# Submitted via: audiograbber 1.83.01
#
DISCID=c30e650e
DTITLE=J.R.R. Tolkien - Der Hobbit
DYEAR=2008
DGENRE=Hörbuch
TTITLE0=J.R.R. Tolkien - 001
TTITLE1=J.R.R. Tolkien - 002
TTITLE2=J.R.R. Tolkien - 003
TTITLE3=J.R.R. Tolkien - 004
TTITLE4=J.R.R. Tolkien - 005
TTITLE5=J.R.R. Tolkien - 006
TTITLE6=J.R.R. Tolkien - 007
TTITLE7=J.R.R. Tolkien - 008
TTITLE8=J.R.R. Tolkien - 009
TTITLE9=J.R.R. Tolkien - 010
TTITLE10=J.R.R. Tolkien - 011
TTITLE11=J.R.R. Tolkien - 012
TTITLE12=J.R.R. Tolkien - 013
TTITLE13=J.R.R. Tolkien - 014
EXTD=
EXTT0=
EXTT1=
EXTT2=
EXTT3=
EXTT4=
EXTT5=
EXTT6=
EXTT7=
EXTT8=
EXTT9=
EXTT10=
EXTT11=
EXTT12=
EXTT13=
PLAYORDER=
